<?xml version="1.0" standalone="no"?>
<!DOCTYPE svg PUBLIC "-//W3C//DTD SVG 20010904//EN"
 "http://www.w3.org/TR/2001/REC-SVG-20010904/DTD/svg10.dtd">
<svg version="1.0" xmlns="http://www.w3.org/2000/svg"
 width="300.000000pt" height="300.000000pt" viewBox="0 0 300.000000 300.000000"
 preserveAspectRatio="xMidYMid meet">
<metadata>
Created by potrace 1.15, written by Peter Selinger 2001-2017
</metadata>
<g transform="translate(0.000000,300.000000) scale(0.100000,-0.100000)"
fill="#000000" stroke="none">
<path d="M610 2661 c-49 -10 -130 -48 -159 -74 -41 -38 -69 -92 -80 -153 -6
-32 -12 -189 -15 -349 -4 -266 -6 -295 -26 -352 -37 -106 -90 -138 -248 -150
l-82 -6 0 -81 0 -81 74 -1 c147 -1 215 -41 256 -149 21 -56 23 -81 29 -385 6
-308 8 -328 29 -375 57 -125 164 -175 372 -175 l100 0 0 79 0 79 -87 4 c-134
7 -193 44 -213 134 -5 21 -10 130 -10 242 0 424 -30 531 -170 600 l-59 30 55
28 c70 35 120 93 139 159 23 82 35 232 35 447 0 112 5 221 10 242 21 91 76
127 208 134 l92 5 0 78 0 79 -107 -1 c-60 -1 -124 -4 -143 -8z"/>
<path d="M2140 2591 l0 -79 88 -4 c109 -5 167 -32 197 -93 18 -36 20 -68 26
-335 7 -356 17 -416 82 -487 23 -25 66 -58 97 -73 30 -16 47 -29 38 -30 -22 0
-86 -37 -121 -69 -75 -68 -97 -182 -97 -498 0 -127 -5 -255 -10 -284 -20 -106
-70 -141 -207 -147 l-93 -4 0 -80 0 -81 138 5 c119 4 144 8 192 30 66 31 111
76 142 143 21 48 22 66 28 375 5 288 8 331 25 380 39 108 114 153 261 154 l74
1 0 81 0 81 -82 6 c-157 12 -209 43 -249 149 -22 60 -24 80 -30 383 -4 199
-11 334 -18 357 -20 63 -71 120 -133 151 -73 35 -137 47 -254 47 l-94 0 0 -79z"/>
<path d="M780 2280 l0 -130 95 0 95 0 0 -720 0 -720 383 -2 c457 -2 418 -3
440 7 15 6 17 0 17 -59 l0 -66 205 0 205 0 0 130 0 130 -101 0 c-100 0 -100 0
-93 23 8 25 8 18 6 150 l-2 98 -165 -3 -165 -3 0 58 0 57 -200 0 -200 0 0
-125 0 -125 200 0 200 0 0 55 0 55 150 0 150 0 0 -97 c0 -54 3 -108 6 -120 6
-23 5 -23 -95 -23 l-101 0 0 -61 c0 -61 0 -61 -26 -55 -14 4 -196 7 -405 6
l-378 0 -3 175 -3 176 136 -2 c139 -2 184 6 138 23 -13 5 -79 9 -146 8 l-123
-1 0 156 0 156 134 -2 c73 -1 139 2 147 6 25 16 -24 24 -153 24 l-127 1 -3
295 -3 296 143 -2 c79 -1 146 1 149 5 16 15 -17 19 -150 17 l-143 -2 4 40 4
41 94 0 94 0 0 130 0 130 -205 0 -205 0 0 -130z m360 0 l0 -80 -155 0 -155 0
0 80 0 80 155 0 155 0 0 -80z m510 -1175 l0 -75 -150 0 -150 0 0 75 0 75 150
0 150 0 0 -75z m520 -385 l0 -80 -155 0 -155 0 0 80 0 80 155 0 155 0 0 -80z"/>
<path d="M1300 2054 l0 -125 95 3 96 3 -2 -182 -2 -183 -93 0 -94 0 0 -125 0
-125 200 0 200 0 0 55 0 55 150 0 150 0 1 -132 c0 -73 4 -142 8 -152 16 -41
26 38 23 177 l-4 137 -164 0 -164 0 0 55 0 55 -93 0 -94 0 -2 120 -2 121 151
-2 150 -2 0 -59 0 -58 95 0 95 0 0 -92 c0 -95 10 -133 26 -107 5 8 7 56 6 107
l-3 92 95 0 96 0 0 130 0 130 -205 0 -205 0 0 -61 0 -61 -27 7 c-31 8 -252 7
-265 -1 -4 -3 -8 19 -8 48 l0 53 95 -3 95 -3 0 125 0 126 -200 0 -200 0 0
-126z m350 1 l0 -75 -150 0 -150 0 0 75 0 75 150 0 150 0 0 -75z m520 -235 l0
-80 -155 0 -155 0 0 80 0 80 155 0 155 0 0 -80z m-520 -375 l0 -75 -149 0
-149 0 -4 75 -3 75 153 0 152 0 0 -75z"/>
</g>
</svg>
