<svg xmlns="http://www.w3.org/2000/svg" xmlns:xlink="http://www.w3.org/1999/xlink" xmlns:sketch="http://www.bohemiancoding.com/sketch/ns" viewBox="0 0 100 125" version="1.1" x="0px" y="0px"><title>12</title><desc>Created with Sketch.</desc><g stroke="none" stroke-width="1" fill="none" fill-rule="evenodd" sketch:type="MSPage"><path d="M79.2725962,75.5992308 C78.1233654,76.7484615 76.1122115,76.7484615 74.9629808,75.5992308 C74.3849038,75.0211538 74.0664423,74.2561538 74.0664423,73.4426923 C74.0664423,72.6326923 74.3849038,71.8676923 74.9629808,71.2896154 C75.5583654,70.6942308 76.3372115,70.3965385 77.1195192,70.3965385 C77.8983654,70.3965385 78.6772115,70.6942308 79.2725962,71.2896154 C80.4599038,72.4803846 80.4599038,74.4084615 79.2725962,75.5992308 L79.2725962,75.5992308 Z M59.8464423,63.7157692 L26.2695192,30.1423077 L26.2695192,23.5792308 L58.33375,55.64 L59.3133654,54.6603846 L27.2525962,22.5961538 L33.8156731,22.5961538 L67.3891346,56.1730769 L59.8464423,63.7157692 Z M39.7799038,63.7157692 L32.2302885,56.1730769 L40.4306731,47.9726923 L43.7156731,51.2576923 L40.3095192,54.6603846 L41.2891346,55.64 L44.6952885,52.2373077 L47.9768269,55.5188462 L39.7799038,63.7157692 Z M65.8072115,22.5961538 L72.37375,22.5961538 L54.9310577,40.0388462 L51.6495192,36.7573077 L65.8072115,22.5961538 Z M73.3533654,30.1423077 L59.1922115,44.3034615 L55.9106731,41.0219231 L73.3533654,23.5792308 L73.3533654,30.1423077 Z M24.6633654,75.5992308 C23.5175962,76.7484615 21.5064423,76.7484615 20.35375,75.5992308 C19.1664423,74.4084615 19.1664423,72.4803846 20.35375,71.2896154 C20.9456731,70.6942308 21.7279808,70.3965385 22.5068269,70.3965385 C23.2856731,70.3965385 24.0679808,70.6942308 24.6633654,71.2896154 C25.2379808,71.8642308 25.5529808,72.6326923 25.5529808,73.4426923 C25.5529808,74.2561538 25.2379808,75.0246154 24.6633654,75.5992308 L24.6633654,75.5992308 Z M81.7199038,68.8423077 C79.6118269,66.7307692 76.4064423,66.3984615 73.9245192,67.8038462 L67.0845192,60.9638462 L76.6729808,51.3788462 L74.8349038,49.5407692 L69.6322115,54.7434615 L61.0302885,46.1380769 L75.5722115,31.5996154 L75.9495192,31.2188462 L75.9495192,20 L64.7341346,20 L49.8114423,34.9226923 L35.2729808,20.3807692 L34.8922115,20 L23.6733654,20 L23.6733654,31.2188462 L38.5960577,46.1380769 L29.9906731,54.74 L24.7879808,49.5407692 L22.9499038,51.3788462 L32.5383654,60.9673077 L25.6983654,67.8038462 C23.2199038,66.4053846 20.0145192,66.7307692 17.9029808,68.8423077 C15.3656731,71.3796154 15.3656731,75.5092308 17.9029808,78.0465385 C19.1733654,79.3134615 20.8383654,79.9503846 22.5068269,79.9503846 C24.1752885,79.9503846 25.8402885,79.3134615 27.1106731,78.0465385 C29.2222115,75.935 29.5510577,72.7330769 28.1456731,70.2511538 L34.9856731,63.4146154 L44.5741346,72.9996154 L46.4122115,71.1615385 L41.2095192,65.9588462 L49.8114423,57.3569231 L58.4168269,65.9588462 L53.2141346,71.1615385 L55.0522115,72.9996154 L64.6372115,63.4111538 L71.47375,70.2476923 C70.9233654,71.2169231 70.6049038,72.3003846 70.6049038,73.4426923 C70.6049038,75.1838462 71.2833654,76.8211538 72.5156731,78.0465385 C73.7825962,79.3134615 75.4510577,79.9503846 77.1195192,79.9503846 C78.7845192,79.9503846 80.4529808,79.3134615 81.7199038,78.0465385 C84.2572115,75.5092308 84.2572115,71.3796154 81.7199038,68.8423077 L81.7199038,68.8423077 Z" fill="#000000" sketch:type="MSShapeGroup"/></g><text x="0" y="115" fill="#000000" font-size="5px" font-weight="bold" font-family="'Helvetica Neue', Helvetica, Arial-Unicode, Arial, Sans-serif">Created by Marek Polakovic</text><text x="0" y="120" fill="#000000" font-size="5px" font-weight="bold" font-family="'Helvetica Neue', Helvetica, Arial-Unicode, Arial, Sans-serif">from the Noun Project</text></svg>