<svg xmlns="http://www.w3.org/2000/svg" xmlns:xlink="http://www.w3.org/1999/xlink" version="1.1" x="0px" y="0px" viewBox="0 0 30 37.5" xml:space="preserve"><g transform="translate(-30 -440)"><g xmlns="http://www.w3.org/2000/svg" xmlns:xlink="http://www.w3.org/1999/xlink"><polygon points="43.586,451.465 44.293,450.757 37.89,444.354 34,444 34.354,447.89 40.757,454.293 41.464,453.586     35.317,447.439 35.105,445.105 37.438,445.317   "/><path d="M55.567,459.203l-0.707-0.707l-1.414,1.414l-4.203-4.203l-0.708,0.707l4.204,4.203l-2.122,2.121l-4.203-4.203    l-0.707,0.707l4.203,4.204l-1.414,1.414l0.707,0.707l2.121-2.122l4.243,4.243l2.121-2.121l-4.242-4.243L55.567,459.203z     M56.274,465.567l-0.707,0.707l-3.536-3.536l0.708-0.707L56.274,465.567z"/><path d="M55.646,447.89L56,444l-3.89,0.354L36.554,459.91l-1.414-1.414l-0.707,0.707l2.121,2.121l-4.242,4.243l2.121,2.121    l4.243-4.243l2.121,2.122l0.707-0.707l-1.414-1.414L55.646,447.89z M34.433,466.274l-0.707-0.707l3.535-3.536l0.708,0.707    L34.433,466.274z M37.261,460.617l15.301-15.3l2.333-0.212l-0.212,2.334l-15.3,15.299L37.261,460.617z"/></g></g><text x="0" y="45" fill="#000000" font-size="5px" font-weight="bold" font-family="'Helvetica Neue', Helvetica, Arial-Unicode, Arial, Sans-serif">Created by Hea Poh Lin</text><text x="0" y="50" fill="#000000" font-size="5px" font-weight="bold" font-family="'Helvetica Neue', Helvetica, Arial-Unicode, Arial, Sans-serif">from the Noun Project</text></svg>