<svg xmlns="http://www.w3.org/2000/svg" xmlns:xlink="http://www.w3.org/1999/xlink" version="1.1" baseProfile="tiny" x="0px" y="0px" viewBox="0 0 100 100" xml:space="preserve"><path d="M57.222,46.512L71.589,8.895c0,0-29.649-5.093-65.959,49.502C7.98,57.876,40.111,32.274,57.222,46.512z"></path><path stroke="#000000" stroke-miterlimit="10" d="M94.371,16.902l-6.313-9.87V7.031h-0.001v0.001l-11.271,3.196L59.21,56.366  L45.529,46.215c0,0-2.633,6.755-1.115,9.566c1.058,1.96,10.471,7.461,16.082,10.616l-4.866,15.544  c-2.189,0.788-3.758,2.884-3.758,5.346c0,3.14,2.545,5.682,5.683,5.682s5.682-2.542,5.682-5.682c0-0.942-0.231-1.831-0.639-2.614  l6.702-14.935c6.292,1.36,16.986,3.487,19.077,2.725c3.001-1.099,5.596-7.936,5.596-7.936l-17.056-1.442L94.371,16.902z   M64.639,68.691c0.011,0.007,0.018,0.01,0.018,0.01l0,0L64.639,68.691z"></path></svg>