<svg xmlns="http://www.w3.org/2000/svg" xmlns:xlink="http://www.w3.org/1999/xlink" version="1.1" x="0px" y="0px" viewBox="0 0 32 40" enable-background="new 0 0 32 32" xml:space="preserve"><path fill-rule="evenodd" clip-rule="evenodd" fill="#000000" d="M24,18.513V18.6c-0.982,1.295-1.654,2.832-1.916,4.508h-0.039  c-0.064,0.376-0.445,0.719-1.043,1.01v4.882c0,1.104-0.896,2-2.002,2h-1C18,31.552,17.553,32,17,32h-2  c-0.553,0-0.999-0.448-0.999-1.001H13c-1.104,0-2-0.896-2-2v-4.882c-0.6-0.291-0.982-0.634-1.045-1.01h-0.04  C9.657,21.432,8.982,19.895,8,18.6v-0.087C6.15,16.549,5,13.914,5,11C5,4.924,9.925,0,16,0c6.074,0,11,4.924,11,11  C27,13.914,25.852,16.549,24,18.513L24,18.513z M14.001,28.999H18c0.553,0,1-0.448,1-1.001v-0.534l-5.402,1.446  C13.721,28.967,13.857,28.999,14.001,28.999L14.001,28.999z M13,27.998c0,0.014,0.007,0.023,0.007,0.035L19,26.428V25  c0-0.015-0.006-0.023-0.008-0.035L13,26.57V27.998L13,27.998z M13,25v0.536l5.404-1.449c-0.123-0.056-0.26-0.088-0.404-0.088h-3.5  h-0.499H13V25L13,25z M16,2.012c-4.965,0-8.987,4.022-8.987,8.988c0,2.292,0.863,4.375,2.275,5.961l-0.004-0.002  c0.924,1.139,1.645,2.482,2.102,3.92c0.103,0.614,0.114,1.11,0.114,1.118v0.002c0,0.551,2.014,0.996,4.5,0.996  c2.486,0,4.501-0.445,4.501-0.996L20.5,21.997c0-0.008,0.012-0.504,0.117-1.118c0.453-1.438,1.178-2.781,2.1-3.92l-0.006,0.002  c1.412-1.586,2.277-3.67,2.277-5.961C24.988,6.034,20.965,2.012,16,2.012L16,2.012z M16,6.006V5.01  c3.316,0.002,6.007,2.681,6.011,5.99h-1.027C20.98,8.242,18.752,6.006,16,6.006L16,6.006z"/><text x="0" y="47" fill="#000000" font-size="5px" font-weight="bold" font-family="'Helvetica Neue', Helvetica, Arial-Unicode, Arial, Sans-serif">Created by Muhamad Ulum</text><text x="0" y="52" fill="#000000" font-size="5px" font-weight="bold" font-family="'Helvetica Neue', Helvetica, Arial-Unicode, Arial, Sans-serif">from the Noun Project</text></svg>