<svg xmlns="http://www.w3.org/2000/svg" xmlns:xlink="http://www.w3.org/1999/xlink" xmlns:sketch="http://www.bohemiancoding.com/sketch/ns" viewBox="0 0 100 125" version="1.1" x="0px" y="0px"><title>Market-35</title><desc>Created with Sketch.</desc><g stroke="none" stroke-width="1" fill="none" fill-rule="evenodd" sketch:type="MSPage"><g sketch:type="MSLayerGroup" fill="#000000"><path d="M94.9147323,29.2176857 L95,29.2176857 L82.1266488,15 L16.4511121,15 L5,29.2176857 L5.0888845,29.2176857 L5.0292796,29.2772906 C5.0292796,34.402625 9.18418407,38.5575295 14.3095185,38.5575295 C18.5477067,38.5575295 22.1223348,35.7164911 23.2328251,31.8349921 C24.3433155,35.7164911 27.9179436,38.5575295 32.1561317,38.5575295 C36.3943199,38.5575295 39.968948,35.7164911 41.0794383,31.8349921 C42.1899287,35.7164911 45.7645568,38.5575295 50.002745,38.5575295 C54.2409331,38.5575295 57.8155612,35.7164911 58.9260516,31.8349921 C60.0365419,35.7164911 63.61117,38.5575295 67.8493582,38.5575295 C72.0875464,38.5575295 75.6621745,35.7164911 76.7726648,31.8349921 C77.8831552,35.7164911 81.4577833,38.5575295 85.6959714,38.5575295 C90.8213059,38.5575295 94.9762103,34.402625 94.9762103,29.2772906 C94.9762103,29.2772906 94.9550437,29.2567797 94.9147323,29.2176857 L94.9147323,29.2176857 Z M15.7372475,39.9852585 L23.5897574,39.9852585 L23.5897574,84.2448594 L15.7372475,84.2448594 L15.7372475,39.9852585 Z M76.4157326,39.9852585 L84.2682424,39.9852585 L84.2682424,84.2448594 L76.4157326,84.2448594 L76.4157326,39.9852585 Z M23.5897574,60.6873299 L76.4157326,60.6873299 L76.4157326,84.2448594 L23.5897574,84.2448594 L23.5897574,60.6873299 Z" sketch:type="MSShapeGroup"/></g></g><text x="0" y="115" fill="#000000" font-size="5px" font-weight="bold" font-family="'Helvetica Neue', Helvetica, Arial-Unicode, Arial, Sans-serif">Created by İsmail Nural</text><text x="0" y="120" fill="#000000" font-size="5px" font-weight="bold" font-family="'Helvetica Neue', Helvetica, Arial-Unicode, Arial, Sans-serif">from the Noun Project</text></svg>