<svg xmlns:dc="http://purl.org/dc/elements/1.1/" xmlns:cc="http://creativecommons.org/ns#" xmlns:rdf="http://www.w3.org/1999/02/22-rdf-syntax-ns#" xmlns:svg="http://www.w3.org/2000/svg" xmlns="http://www.w3.org/2000/svg" xmlns:sodipodi="http://sodipodi.sourceforge.net/DTD/sodipodi-0.dtd" xmlns:inkscape="http://www.inkscape.org/namespaces/inkscape" version="1.1" x="0px" y="0px" viewBox="0 0 100 125"><g transform="translate(0,-952.36218)"><path d="m 81.187505,958.36329 a 2.0001998,2.0001998 0 0 1 1.812473,1.99998 l 0,67.31243 a 2.0001998,2.0001998 0 0 1 -1.999984,2.0001 l -12.000012,0 0,14.6875 a 2.0001998,2.0001998 0 0 1 -1.999984,2 l -48.00001,0 a 2.0001998,2.0001998 0 0 1 -1.999985,-2 l 0,-67.31254 a 2.0001998,2.0001998 0 0 1 1.999985,-1.99998 l 12.000011,0 0,-14.68751 a 2.0001998,2.0001998 0 0 1 1.999984,-1.99998 l 48.000011,0 a 2.0001998,2.0001998 0 0 1 0.187511,0 z m -2.187531,4 -43.999971,0 0,12.68749 31.999995,0 a 2.0001998,2.0001998 0 0 1 1.999984,1.99998 l 0,48.62504 9.999992,0 0,-63.31251 z" style="text-indent:0;text-transform:none;direction:ltr;block-progression:tb;baseline-shift:baseline;color:#000000;enable-background:accumulate;" fill="#000000" fill-opacity="1" fill-rule="evenodd" stroke="none" marker="none" visibility="visible" display="inline" overflow="visible"/></g><text x="0" y="115" fill="#000000" font-size="5px" font-weight="bold" font-family="'Helvetica Neue', Helvetica, Arial-Unicode, Arial, Sans-serif">Created by Royyan Razka</text><text x="0" y="120" fill="#000000" font-size="5px" font-weight="bold" font-family="'Helvetica Neue', Helvetica, Arial-Unicode, Arial, Sans-serif">from the Noun Project</text></svg>