<svg xmlns="http://www.w3.org/2000/svg" xmlns:xlink="http://www.w3.org/1999/xlink" version="1.1" x="0px" y="0px" viewBox="0 0 100 125" style="enable-background:new 0 0 100 100;" xml:space="preserve"><g><g><g><g><path d="M25.5,87.2c-1.2,0-2.4-0.3-3.5-1c-1.6-0.9-2.7-2.4-3.2-4.2L5.9,31.1c-0.9-3.7,1.3-7.4,5-8.4l17.4-4.4      c0.5-0.1,1.1,0.2,1.2,0.7s-0.2,1.1-0.7,1.2l-17.4,4.4c-2.6,0.7-4.2,3.3-3.5,5.9l12.9,50.9c0.3,1.3,1.1,2.3,2.2,3      s2.4,0.9,3.7,0.5L58.4,77c0.9-0.2,1.6-0.6,2.2-1.3c0.4-0.4,1-0.4,1.4,0s0.5,0.9,0.1,1.3c-0.9,1-2,1.6-3.3,2l-31.6,8      C26.6,87.2,26,87.2,25.5,87.2z"/></g><g><path d="M24.8,81.5c-0.4,0-0.9-0.3-1-0.8l-8.6-34c-0.1-0.5,0.2-1.1,0.7-1.2c0.5-0.1,1.1,0.2,1.2,0.7l8.6,34      c0.1,0.5-0.2,1.1-0.7,1.2C24.9,81.5,24.9,81.5,24.8,81.5z"/></g></g></g><g><g><path d="M74.5,89c-0.6,0-1.1-0.1-1.7-0.2L46.3,82c-0.5-0.1-0.9-0.7-0.7-1.2c0.1-0.5,0.7-0.9,1.2-0.7l26.5,6.7     c1.3,0.3,2.6,0.1,3.7-0.5c1.1-0.7,1.9-1.7,2.2-3l12.9-50.9c0.7-2.6-0.9-5.3-3.5-5.9l-15.5-3.9c-0.5-0.1-0.9-0.7-0.7-1.2     c0.1-0.5,0.7-0.9,1.2-0.7l15.5,3.9c3.7,0.9,5.9,4.7,5,8.4L81.2,83.8c-0.5,1.8-1.6,3.3-3.2,4.2C76.9,88.7,75.7,89,74.5,89z"/></g><g><path d="M80.5,62.4c-0.1,0-0.2,0-0.2,0c-0.5-0.1-0.9-0.7-0.7-1.2l7.6-30c0.1-0.5,0.7-0.9,1.2-0.7     c0.5,0.1,0.9,0.7,0.7,1.2l-7.6,30C81.4,62.1,81,62.4,80.5,62.4z"/></g></g><g><g><g><path d="M67.3,77.3H34.5c-3.8,0-6.9-3.1-6.9-6.9V17.9c0-3.8,3.1-6.9,6.9-6.9h32.8c3.8,0,6.9,3.1,6.9,6.9v52.6      C74.1,74.2,71.1,77.3,67.3,77.3z M34.5,13c-2.7,0-4.9,2.2-4.9,4.9v52.6c0,2.7,2.2,4.9,4.9,4.9h32.8c2.7,0,4.9-2.2,4.9-4.9V17.9      c0-2.7-2.2-4.9-4.9-4.9H34.5z"/></g><g><path d="M56,18.1c-0.3,0-0.5-0.1-0.7-0.3c-0.2-0.2-0.3-0.5-0.3-0.7c0-0.3,0.1-0.5,0.3-0.7c0.4-0.4,1-0.4,1.4,0      c0.2,0.2,0.3,0.4,0.3,0.7c0,0.3-0.1,0.5-0.3,0.7C56.5,18,56.3,18.1,56,18.1z"/></g><g><path d="M68,25.5c-0.6,0-1-0.4-1-1v-6.4h-6.4c-0.6,0-1-0.4-1-1s0.4-1,1-1h6.6c1,0,1.7,0.8,1.7,1.7v6.6      C69,25,68.6,25.5,68,25.5z"/></g><g><path d="M45.8,72.2c-0.3,0-0.5-0.1-0.7-0.3c-0.2-0.2-0.3-0.4-0.3-0.7c0-0.3,0.1-0.5,0.3-0.7      c0.4-0.4,1-0.4,1.4,0c0.2,0.2,0.3,0.5,0.3,0.7c0,0.3-0.1,0.5-0.3,0.7C46.3,72.1,46,72.2,45.8,72.2z"/></g><g><path d="M41.1,72.2h-6.6c-1,0-1.7-0.8-1.7-1.7v-6.6c0-0.6,0.4-1,1-1s1,0.4,1,1v6.4h6.4c0.6,0,1,0.4,1,1      S41.7,72.2,41.1,72.2z"/></g></g><g><path d="M50.9,55.5c-0.1,0-0.2,0-0.2,0c-0.5-0.1-0.9-0.7-0.7-1.2l2.2-8.9h-3.8c-0.3,0-0.6-0.2-0.8-0.4     s-0.2-0.6-0.1-0.9l3.4-10.7c0.2-0.5,0.7-0.8,1.3-0.7c0.5,0.2,0.8,0.7,0.7,1.3L50,43.4h3.8c0.3,0,0.6,0.1,0.8,0.4s0.3,0.6,0.2,0.9     l-2.6,10.1C51.7,55.2,51.3,55.5,50.9,55.5z"/></g></g></g><text x="0" y="115" fill="#000000" font-size="5px" font-weight="bold" font-family="'Helvetica Neue', Helvetica, Arial-Unicode, Arial, Sans-serif">Created by María Villamil</text><text x="0" y="120" fill="#000000" font-size="5px" font-weight="bold" font-family="'Helvetica Neue', Helvetica, Arial-Unicode, Arial, Sans-serif">from the Noun Project</text></svg>