<svg xmlns="http://www.w3.org/2000/svg" xmlns:xlink="http://www.w3.org/1999/xlink" viewBox="0 0 60 75" version="1.1" x="0px" y="0px"><title>34 -Swords- (medieval, antique, old)</title><desc>Created with Sketch.</desc><g stroke="none" stroke-width="1" fill="none" fill-rule="evenodd" stroke-linejoin="round"><g transform="translate(-480.000000, -711.000000)" stroke="#000000" stroke-width="2"><g transform="translate(481.000000, 712.000000)"><polygon points="6.544 54.2849 3.716 51.4569 15.086 40.0859 17.914 42.9149"/><path d="M4.1696,57.5674 L0.4336,53.8314 C-0.0974,53.3004 -0.0974,52.4404 0.4336,51.9104 L1.3416,51.0024 C1.8716,50.4724 2.7316,50.4724 3.2616,51.0024 L6.9976,54.7394 C7.5286,55.2694 7.5286,56.1294 6.9976,56.6594 L6.0896,57.5674 C5.5596,58.0974 4.6996,58.0974 4.1696,57.5674 L4.1696,57.5674 Z"/><path d="M16.5363,41.5374 C16.5183,41.5194 16.4993,41.5004 16.4813,41.4814 C14.8323,39.8104 13.7313,37.6904 13.3033,35.4354 C13.0613,34.1604 14.0303,32.9804 15.3273,33.0224 C16.2563,33.0524 17.0553,33.7174 17.2163,34.6324 C17.4823,36.1374 18.2063,37.5354 19.3283,38.6724 C20.5223,39.8404 21.9533,40.6054 23.5183,40.8914 C24.4333,41.0584 25.0863,41.8744 25.1033,42.8044 L25.1033,42.8094 C25.1273,44.0474 24.0233,45.0474 22.8043,44.8234 C20.4513,44.3914 18.2493,43.2504 16.5363,41.5374 L16.5363,41.5374 Z"/><path d="M50.0276,7.9728 L31.9996,26.0008" stroke-linecap="round"/><polygon points="51.4914 54.2849 54.3194 51.4569 42.9494 40.0859 40.1214 42.9149"/><path d="M53.8658,57.5674 L57.6018,53.8314 C58.1328,53.3004 58.1328,52.4404 57.6018,51.9104 L56.6938,51.0024 C56.1638,50.4724 55.3038,50.4724 54.7738,51.0024 L51.0378,54.7394 C50.5068,55.2694 50.5068,56.1294 51.0378,56.6594 L51.9458,57.5674 C52.4758,58.0974 53.3358,58.0974 53.8658,57.5674 L53.8658,57.5674 Z"/><path d="M41.4991,41.5374 C41.5171,41.5194 41.5361,41.5004 41.5541,41.4814 C43.2031,39.8104 44.3041,37.6904 44.7321,35.4354 C44.9741,34.1604 44.0051,32.9804 42.7081,33.0224 C41.7791,33.0524 40.9801,33.7174 40.8191,34.6324 C40.5531,36.1374 39.8291,37.5354 38.7071,38.6724 C37.5131,39.8404 36.0821,40.6054 34.5171,40.8914 C33.6021,41.0584 32.9491,41.8744 32.9321,42.8044 L32.9321,42.8094 C32.9081,44.0474 34.0121,45.0474 35.2311,44.8234 C37.5841,44.3914 39.7861,43.2504 41.4991,41.5374 L41.4991,41.5374 Z"/><path d="M38.7073,38.6724 C37.6673,39.6894 36.4423,40.3784 35.1123,40.7344 L3.5883,9.2104 L0.0353,0.0004 L9.2453,3.5534 L40.7173,35.0264 C40.4023,36.3784 39.7293,37.6364 38.7073,38.6724 L38.7073,38.6724 Z"/><path d="M8.0077,7.9728 L35.0357,35.0008" stroke-linecap="round"/><path d="M23.3608,28.9828 L17.3178,35.0258 C17.6338,36.3788 18.3058,37.6358 19.3278,38.6728 C20.3678,39.6898 21.5928,40.3788 22.9228,40.7338 L29.0178,34.6398 L23.3608,28.9828 L23.3608,28.9828 Z"/><polygon points="48.7904 3.5532 29.0174 23.3262 34.6744 28.9832 54.4474 9.2102 58.0004 0.0002"/></g></g></g><text x="0" y="75" fill="#000000" font-size="5px" font-weight="bold" font-family="'Helvetica Neue', Helvetica, Arial-Unicode, Arial, Sans-serif">Created by Ben Davis</text><text x="0" y="80" fill="#000000" font-size="5px" font-weight="bold" font-family="'Helvetica Neue', Helvetica, Arial-Unicode, Arial, Sans-serif">from the Noun Project</text></svg>