<svg xmlns="http://www.w3.org/2000/svg" xmlns:xlink="http://www.w3.org/1999/xlink" version="1.1" x="0px" y="0px" viewBox="0 0 100 125" style="enable-background:new 0 0 100 100;" xml:space="preserve"><g><path d="M37.565,70.315v1.426c0,0.454,0.206,0.883,0.559,1.168c0.269,0.217,0.602,0.332,0.941,0.332   c0.106,0,0.213-0.011,0.318-0.034l22.097-4.802c0.623-0.135,1.093-0.65,1.17-1.283c0.69-5.618,3.286-11.011,7.304-15.184   c5.014-5.18,7.775-12.003,7.775-19.213c0-15.802-13.299-28.543-29.267-27.684c-14.527,0.785-26.032,12.812-26.191,27.38   c-0.077,7.274,2.652,14.172,7.682,19.422C34.862,56.972,37.565,63.532,37.565,70.315z M48.625,8.038   C49.091,8.013,49.551,8,50.011,8C63.641,8,74.73,19.092,74.73,32.726c0,6.427-2.461,12.51-6.934,17.129   c-4.216,4.377-7.022,9.967-7.973,15.84l-19.262,4.186c-0.112-7.405-3.1-14.531-8.441-20.111   c-4.485-4.681-6.917-10.831-6.849-17.315C25.414,19.463,35.672,8.738,48.625,8.038z"/><path d="M52.013,14.106c1.651,0.176,3.271,0.573,4.816,1.179c0.18,0.07,0.365,0.104,0.547,0.104c0.599,0,1.165-0.361,1.397-0.953   c0.302-0.771-0.077-1.642-0.849-1.944c-1.794-0.704-3.676-1.165-5.593-1.37c-0.825-0.083-1.563,0.509-1.651,1.333   S51.189,14.019,52.013,14.106z"/><path d="M68.73,32.726c0,0.829,0.671,1.5,1.5,1.5s1.5-0.671,1.5-1.5c0-5.674-2.182-11.047-6.143-15.127   c-0.577-0.594-1.527-0.609-2.121-0.031c-0.594,0.577-0.608,1.526-0.031,2.121C66.849,23.206,68.73,27.835,68.73,32.726z"/><path d="M54.927,76.997c0.105,0,0.212-0.011,0.32-0.035l6.123-1.33c0.81-0.176,1.323-0.975,1.147-1.784   c-0.177-0.81-0.979-1.327-1.784-1.147l-6.123,1.33c-0.81,0.176-1.323,0.975-1.147,1.784C53.615,76.517,54.237,76.997,54.927,76.997   z"/><path d="M49.628,75.112L38.633,77.5c-0.81,0.176-1.323,0.975-1.147,1.784c0.152,0.702,0.774,1.182,1.464,1.182   c0.105,0,0.212-0.011,0.32-0.035l10.995-2.387c0.81-0.176,1.323-0.975,1.147-1.784S50.436,74.936,49.628,75.112z"/><path d="M37.594,86.512c0.152,0.702,0.774,1.182,1.464,1.182c0.105,0,0.212-0.011,0.32-0.035l22.101-4.798   c0.81-0.176,1.323-0.975,1.147-1.784s-0.974-1.326-1.784-1.147l-22.101,4.798C37.932,84.903,37.418,85.702,37.594,86.512z"/><path d="M58.222,87.806c0.108-0.821-0.47-1.575-1.292-1.683c-0.82-0.109-1.575,0.47-1.683,1.292C54.903,90.029,52.645,92,49.995,92   c-1.414,0-2.747-0.555-3.754-1.562c-0.287-0.287-0.527-0.59-0.712-0.899c-0.425-0.71-1.348-0.941-2.058-0.515   c-0.71,0.426-0.941,1.347-0.515,2.058c0.312,0.52,0.703,1.017,1.163,1.477c1.573,1.574,3.66,2.44,5.875,2.44   C54.145,95,57.682,91.907,58.222,87.806z"/><path d="M42.611,45.518c0.171,0.81,0.967,1.331,1.779,1.156c0.81-0.172,1.328-0.968,1.156-1.779l-0.718-3.384l1.901,1.252   c1.988,1.311,4.559,1.311,6.547,0l1.901-1.252l-2.899,13.664h-4.55l-1.011-4.762c-0.172-0.811-0.967-1.329-1.779-1.156   c-0.811,0.172-1.328,0.968-1.156,1.779l1.234,5.817v8.218c0,0.829,0.671,1.5,1.5,1.5s1.5-0.671,1.5-1.5v-6.895h3.969v5.38   c0,0.829,0.671,1.5,1.5,1.5s1.5-0.671,1.5-1.5v-6.689l3.471-16.357c0.196-0.923-0.181-1.864-0.961-2.396   c-0.78-0.533-1.794-0.542-2.582-0.021l-3.288,2.166c-0.986,0.649-2.26,0.649-3.246,0l-3.288-2.166   c-0.789-0.52-1.802-0.512-2.582,0.021c-0.78,0.532-1.157,1.473-0.961,2.396L42.611,45.518z"/></g><text x="0" y="115" fill="#000000" font-size="5px" font-weight="bold" font-family="'Helvetica Neue', Helvetica, Arial-Unicode, Arial, Sans-serif">Created by Maxim Kulikov</text><text x="0" y="120" fill="#000000" font-size="5px" font-weight="bold" font-family="'Helvetica Neue', Helvetica, Arial-Unicode, Arial, Sans-serif">from the Noun Project</text></svg>