<svg xmlns="http://www.w3.org/2000/svg" xmlns:xlink="http://www.w3.org/1999/xlink" version="1.1" x="0px" y="0px" viewBox="0 0 100 125" style="enable-background:new 0 0 100 100;" xml:space="preserve"><path d="M94,13.2l-7.7-7.4C86,5.5,85.5,5.3,85,5.3c-0.5,0-0.9,0.2-1.3,0.6L43.1,48.3c-0.7,0.7-0.7,1.9,0.1,2.6  l7.7,7.4c0.3,0.3,0.8,0.5,1.3,0.5c0.5,0,0.9-0.2,1.3-0.6l40.7-42.4C94.8,15.1,94.7,13.9,94,13.2z M52,54.4l-5.1-4.9L85.1,9.7  l5.1,4.9L52,54.4z"/><path d="M23.8,74.7c3.5,0.8,6.6,1.1,9.2,1.1c4.2,0,7.4-0.8,10-2.1c1.9-1,3.3-2.2,4.4-3.5c1.6-2,2.4-4.1,2.9-5.6  c0.4-1.6,0.4-2.7,0.4-2.8c0-0.5-0.2-1-0.6-1.3l-9-8.6c-0.3-0.3-0.8-0.5-1.3-0.5c-1.4,0-2.6,0.2-3.7,0.5c-0.9,0.3-1.8,0.7-2.5,1.2  c-1.3,0.9-2.1,2.1-2.7,3.3c-0.9,1.9-1.2,3.8-1.5,5.7c-0.2,0.9-0.3,1.8-0.6,2.6c-0.2,0.8-0.5,1.5-0.8,2.1c-0.3,0.5-0.7,1.1-1.2,1.6  c-0.8,0.9-1.7,1.7-2.5,2.3c-0.4,0.3-0.7,0.5-0.9,0.7c-0.1,0.1-0.2,0.1-0.3,0.2l-0.1,0l0,0l0,0l0,0c-0.6,0.4-0.9,1.1-0.8,1.8  C22.5,73.9,23.1,74.5,23.8,74.7z M29.6,70.7c0.7-0.7,1.3-1.5,1.8-2.4c0.9-1.6,1.3-3.3,1.6-5c0.2-1.2,0.4-2.4,0.7-3.5  c0.2-0.8,0.4-1.5,0.7-2.1c0.2-0.5,0.5-0.8,0.7-1.2c0.4-0.5,0.9-0.9,1.7-1.2c0.6-0.2,1.4-0.4,2.4-0.5l7.8,7.4  c-0.1,0.5-0.2,1.3-0.6,2.2c-0.3,0.8-0.7,1.6-1.3,2.5c-0.9,1.3-2.1,2.5-4,3.5c-1.9,1-4.5,1.6-8.1,1.6c-1.4,0-2.9-0.1-4.6-0.3  C28.8,71.5,29.2,71.1,29.6,70.7z"/><path d="M78.6,37.2L78.6,37.2c1.1,4,1.8,8.3,1.8,12.8c0,3.9-0.1,7.2-0.4,9.9c-0.2,2-0.5,3.7-0.8,5  c-0.2,1-0.5,1.8-0.8,2.5c-0.5,1-0.9,1.5-1.3,1.8c-0.2,0.2-0.4,0.3-0.7,0.3c-0.2,0.1-0.5,0.1-0.8,0.1c-0.2,0-0.5,0-0.8-0.1  c-0.4-0.1-0.6-0.2-0.9-0.4c-0.2-0.2-0.4-0.4-0.6-0.7c-0.4-0.6-0.7-1.4-1.1-2.3c-0.3-0.7-0.5-1.5-0.8-2.3c-0.5-1.2-1-2.4-2.1-3.4  c-0.5-0.5-1.2-1-1.9-1.3c-0.7-0.3-1.6-0.5-2.5-0.5c-0.5,0-1,0-1.6,0.1c-1,0.2-2,0.6-2.7,1.2c-0.6,0.5-1,1-1.3,1.6  c-0.5,0.9-0.8,1.9-0.9,2.9c-0.2,1-0.2,2.1-0.2,3.3c0,2.9,0.3,6.1,0.3,9.1c0,1.9-0.1,3.8-0.5,5.4c-0.3,1.2-0.7,2.4-1.2,3.4  c-0.4,0.7-0.9,1.4-1.6,2c-1,0.9-2.2,1.7-3.9,2.2c-1.7,0.6-3.9,0.9-6.6,0.9l-0.1,0c-4.9,0-9.5-1.1-13.8-3.2  c-6.4-3.1-11.8-8.3-15.7-14.8c-3.9-6.6-6.1-14.5-6.1-23c0-11.4,4-21.7,10.5-29.1c3.2-3.7,7.1-6.7,11.3-8.7c4.3-2.1,8.9-3.2,13.8-3.2  c8.3,0,15.9,3.2,22,8.7l2.4-2.7C62.5,9,54,5.3,44.7,5.3c-5.5,0-10.7,1.3-15.4,3.6c-7.1,3.4-13.1,9.1-17.3,16.2  C7.9,32.2,5.4,40.8,5.4,50c0,12.2,4.3,23.4,11.4,31.5c3.5,4.1,7.7,7.4,12.5,9.6c4.7,2.3,9.9,3.6,15.3,3.6l0.1,0  c3.6,0,6.5-0.5,8.8-1.5c1.8-0.7,3.2-1.7,4.4-2.9c1.7-1.8,2.8-4,3.4-6.2c0.6-2.3,0.7-4.6,0.7-6.9c0-3.3-0.3-6.5-0.3-9.1  c0-0.9,0-1.7,0.1-2.5c0.1-0.5,0.2-1,0.3-1.4c0.2-0.6,0.4-0.9,0.7-1.2c0.2-0.2,0.5-0.4,1.1-0.5c0.4-0.1,0.7-0.1,1-0.1  c0.6,0,0.9,0.1,1.2,0.2c0.3,0.1,0.5,0.3,0.7,0.5c0.4,0.4,0.8,1.1,1.1,2c0.3,0.6,0.5,1.4,0.8,2.1c0.4,1.1,0.9,2.4,1.7,3.5  c0.4,0.6,0.9,1.1,1.5,1.5c0.6,0.4,1.4,0.7,2.2,0.9c0.5,0.1,1,0.1,1.5,0.1c0.7,0,1.5-0.1,2.2-0.4c0.6-0.2,1.2-0.6,1.7-1  c0.9-0.8,1.6-1.8,2.2-3.1c0.8-1.9,1.4-4.3,1.8-7.4C83.8,58.4,84,54.6,84,50c0-4.8-0.7-9.5-1.9-13.8L78.6,37.2z"/><path d="M18.2,39.6c-1.3,1.3-2.1,3.1-2.1,5.1c0,2,0.8,3.8,2.1,5.1c1.3,1.3,3.1,2.1,5.1,2.1c2,0,3.8-0.8,5.1-2.1  c1.3-1.3,2.1-3.1,2.1-5.1c0-2-0.8-3.8-2.1-5.1c-1.3-1.3-3.1-2.1-5.1-2.1C21.3,37.4,19.5,38.2,18.2,39.6z M26.9,44.7  c0,1-0.4,1.9-1.1,2.6c-0.7,0.7-1.6,1.1-2.6,1.1c-1,0-1.9-0.4-2.6-1.1c-0.7-0.7-1.1-1.6-1.1-2.6c0-1,0.4-1.9,1.1-2.6  c0.7-0.7,1.6-1.1,2.6-1.1c1,0,1.9,0.4,2.6,1.1C26.5,42.8,26.9,43.7,26.9,44.7z"/><path d="M36.5,33.6c1.3-1.3,2.1-3.1,2.1-5.1c0-2-0.8-3.8-2.1-5.1c-1.3-1.3-3.1-2.1-5.1-2.1c-2,0-3.8,0.8-5.1,2.1  c-1.3,1.3-2.1,3.1-2.1,5.1c0,2,0.8,3.8,2.1,5.1c1.3,1.3,3.1,2.1,5.1,2.1C33.4,35.8,35.2,35,36.5,33.6z M27.8,28.5  c0-1,0.4-1.9,1.1-2.6c0.7-0.7,1.6-1.1,2.6-1.1c1,0,1.9,0.4,2.6,1.1c0.7,0.7,1.1,1.6,1.1,2.6c0,1-0.4,1.9-1.1,2.6  c-0.7,0.7-1.6,1.1-2.6,1.1c-1,0-1.9-0.4-2.6-1.1C28.2,30.4,27.8,29.5,27.8,28.5z"/><path d="M48.2,29c2,0,3.8-0.8,5.1-2.1c1.3-1.3,2.1-3.1,2.1-5.1c0-2-0.8-3.8-2.1-5.1c-1.3-1.3-3.1-2.1-5.1-2.1  c-2,0-3.8,0.8-5.1,2.1c-1.3,1.3-2.1,3.1-2.1,5.1c0,2,0.8,3.8,2.1,5.1C44.4,28.2,46.2,29,48.2,29z M45.7,19.2  c0.7-0.7,1.6-1.1,2.6-1.1c1,0,1.9,0.4,2.6,1.1c0.7,0.7,1.1,1.6,1.1,2.6c0,1-0.4,1.9-1.1,2.6c-0.7,0.7-1.6,1.1-2.6,1.1  c-1,0-1.9-0.4-2.6-1.1c-0.7-0.7-1.1-1.6-1.1-2.6C44.6,20.8,45,19.9,45.7,19.2z"/><text x="0" y="115" fill="#000000" font-size="5px" font-weight="bold" font-family="'Helvetica Neue', Helvetica, Arial-Unicode, Arial, Sans-serif">Created by Dominik Minet</text><text x="0" y="120" fill="#000000" font-size="5px" font-weight="bold" font-family="'Helvetica Neue', Helvetica, Arial-Unicode, Arial, Sans-serif">from the Noun Project</text></svg>