<svg xmlns="http://www.w3.org/2000/svg" xmlns:xlink="http://www.w3.org/1999/xlink" version="1.1" x="0px" y="0px" viewBox="0 0 100 125" style="enable-background:new 0 0 100 100;" xml:space="preserve"><path d="M25.9,30.2c0,0.8,0.2,1.7,0.7,2.5c0.6,1,0.9,1.7,1,2.2c-1.2-0.5-3.1-1-5.7-1.7c-2.6-0.7-4.5-1.3-5.7-1.7  c-4.2-1.6-6.8-3.9-7.8-7c2.2,0.7,5.1,1.6,8.8,2.8C21.5,28.8,24.4,29.7,25.9,30.2z M29.3,36.9c0.1,0.7,0.6,1.6,1.3,2.6  c0.8,1,1.2,1.8,1.4,2.5c-0.6-0.2-2.3-0.7-5.2-1.6c-2.1-0.7-3.8-1.2-5.1-1.8c-3.7-1.6-6.1-3.7-7.2-6.4c1.8,0.2,4.2,0.9,7.3,2  C25.6,35.7,28.1,36.6,29.3,36.9z M22.6,40c7.3,1.3,12,3.9,14.1,7.7c-3.9-0.8-6.7-1.5-8.3-2.2C25.2,44.2,23.2,42.3,22.6,40z   M65.2,45.7c0.3,0.2,0.1,0.8-0.8,1.8c-0.8,0.8-1.5,1.4-2.2,1.9c-4.7,3.1-8.8,4.6-12.1,4.4c-4.6-0.3-9.2-3-13.8-8.1  c0.6,0,1.4,0.2,2.5,0.5c1,0.3,1.9,0.5,2.6,0.5c-3.1-1.1-5.2-2.1-6.4-2.8c-2-1.4-3.3-3.2-3.7-5.6c0.7,0,1.4,0.2,2.4,0.7  c0.9,0.4,1.7,0.7,2.3,0.7c-2.8-1.2-4.9-2.4-6.2-3.6c-1.9-1.7-2.9-3.9-3.3-6.5c1.8,0.8,4.4,1.8,7.7,2.9c3.9,1.3,6.5,2.3,7.8,2.8  c1.9,5.1,4.8,9,8.7,11.8c4.3-2.8,7.2-6.8,8.7-11.8c0.8-0.3,3.4-1.2,7.9-2.7c3.2-1.1,5.8-2.1,7.6-3c0,2.4-0.9,4.5-2.7,6.3  c-1.7,1.8-3.8,2.9-6.4,3.4c0.5,0.3,1.2,0.2,2.2-0.3c1.1-0.5,2-0.8,2.6-0.7c-1.1,4.4-4.5,7.1-10.1,8.1c0.6,0.4,1.3,0.4,2.3,0  C64.1,45.9,64.9,45.7,65.2,45.7z M43.4,55.1c0.4,0.1,0.8,0.6,1.2,1.5c0.4,0.9,0.8,1.4,1.2,1.5c-3.1,6.5-4.7,10-5,10.8  c-0.7-0.2-1.3-0.6-1.9-1.4c-0.8-0.9-1.3-1.5-1.5-1.7c0.6-1.3,1.6-3.1,3-5.4C41.8,58.1,42.8,56.4,43.4,55.1z M46.1,59.1  c0.3,0.2,0.7,0.6,1.2,1.2c0.5,0.6,0.9,1,1.2,1.2c-1.8,7.2-2.8,11.1-3,11.8c-0.7-0.2-1.4-0.6-2.2-1.4c-0.9-0.9-1.6-1.5-1.9-1.7  C41.5,70,43,66.3,46.1,59.1z M51.1,61.8c-2.6-1.4-5.3-4.7-8.1-9.7c2.4,1.1,5,1.7,7.6,1.8c3.1,0.1,5.7-0.6,7.9-2.2  C57.3,54.8,54.9,58.1,51.1,61.8z M47.4,41.6c-0.6,0.1-1,0-1.4-0.3c-0.6-0.5-0.9-0.7-0.9-0.8c0.6-0.9,1.1-2.6,1.4-5  c0-0.2-0.2-0.3-0.5-0.3c-0.1,0-0.2,0-0.4,0c-0.2,0-0.3,0-0.4,0c0.6-2.4,2-4.2,4.3-5.4c2.4-1.2,4.9-1.2,7.5,0c0.2,1.5-0.1,2.8-1,3.7  c-0.4,0-0.9-0.1-1.4-0.4c-0.4-0.2-0.8-0.2-1.3,0.1c0.1,0.5,0.3,1.2,0.4,2.1c0.1,1,0.3,1.7,0.4,2.1c0.4,1.6,1.3,2.4,2.5,2.5  c0,0.8-0.7,1.3-2,1.4c-0.4,0-0.4,0.2,0,0.5c0.5,0.3,0.7,0.5,0.7,0.5c0,0.4-0.6,1.1-1.9,2.3c-1.2,1.1-1.9,1.7-2.1,1.8  c-0.8,0-1.7-0.5-2.6-1.7C47.6,43.5,47.3,42.5,47.4,41.6z M49.1,62.1c0.8,0.5,1.3,0.7,1.7,0.7c0.4,0,0.9-0.2,1.7-0.7  c0.1,0.5,0.5,2.5,1.2,6c0.5,2.4,1,4.3,1.5,5.7c-0.2,0.3-1.5,1.2-4,2.7c-0.7-0.2-1.4-0.5-2.3-0.9c-1.1-0.6-1.8-0.9-2.1-1.1  c0.1-1.7,0.5-3.8,1.1-6.3C48.5,65.4,48.9,63.4,49.1,62.1z M53.1,30.2c-0.7,1.2-1.1,2.1-1.2,2.6c-0.4,1.1-0.2,1.6,0.5,1.5  c-0.4-0.4-0.3-1.1,0.2-2.2C53.1,31,53.3,30.4,53.1,30.2z M53.1,61.8c0.1-0.4,0.4-0.9,1-1.4c0.6-0.5,0.9-0.9,1-1.3  c0.8,1.1,1.6,2.9,2.6,5.3c1,2.7,1.9,4.5,2.4,5.4c-1.2,1.8-2.5,2.9-4.1,3.4c-0.3-1.5-0.8-3.4-1.5-5.7C53.9,64.6,53.4,62.7,53.1,61.8z   M56.1,58.4c0-0.6,0.3-1.2,0.8-1.8c0.5-0.6,0.8-1.2,0.9-1.6c0.9,1.2,2,2.9,3.3,5.1c1.7,3,2.8,4.7,3.1,5.3c0.1-0.3-0.8,0.9-2.7,3.4  C61.7,69,59.9,65.5,56.1,58.4z M65.6,48c0-0.4,0.5-1.1,1.4-2.3c0.9-1.2,1.5-2.1,1.7-2.8c1.3-0.2,3-0.7,5.3-1.5  c2.2-0.8,4-1.3,5.4-1.5c-0.7,2.3-2.6,4.1-5.6,5.3c-0.9,0.4-2.2,0.8-4.1,1.4C67.8,47.2,66.4,47.7,65.6,48z M70.3,42  c0.3-2.8,2.4-5,6.4-6.6c1-0.4,2.8-1,5.3-1.8c2.3-0.7,4-1.2,5-1.8c-0.8,3-3,5.2-6.7,6.7c-1,0.4-2.7,1-5,1.7  C73,40.9,71.3,41.5,70.3,42z M76.3,29.9c2.1-0.5,5-1.4,8.6-2.6c3.8-1.3,6.7-2.3,8.5-2.7c-1.1,3-3.8,5.4-8,7  c-1.3,0.5-3.2,1.1-5.7,1.8C76.9,34,75,34.6,74,34.9C74.5,34.2,75.3,32.5,76.3,29.9z"/><text x="0" y="115" fill="#000000" font-size="5px" font-weight="bold" font-family="'Helvetica Neue', Helvetica, Arial-Unicode, Arial, Sans-serif">Created by Leadway Global LLC</text><text x="0" y="120" fill="#000000" font-size="5px" font-weight="bold" font-family="'Helvetica Neue', Helvetica, Arial-Unicode, Arial, Sans-serif">from the Noun Project</text></svg>