<?xml version="1.0" standalone="no"?>
<!DOCTYPE svg PUBLIC "-//W3C//DTD SVG 20010904//EN"
 "http://www.w3.org/TR/2001/REC-SVG-20010904/DTD/svg10.dtd">
<svg version="1.0" xmlns="http://www.w3.org/2000/svg"
 width="275.000000pt" height="200.000000pt" viewBox="0 0 275.000000 200.000000"
 preserveAspectRatio="xMidYMid meet">
<metadata>
Created by potrace 1.15, written by Peter Selinger 2001-2017
</metadata>
<g transform="translate(0.000000,200.000000) scale(0.100000,-0.100000)"
fill="#000000" stroke="none">
<path d="M1875 1944 c-78 -61 -224 -201 -262 -251 -14 -18 -31 -33 -38 -33
-18 0 -65 -76 -65 -105 0 -14 -6 -38 -14 -53 -29 -56 -76 -221 -96 -331 -10
-63 -18 -117 -15 -119 7 -8 25 9 25 25 0 31 195 412 211 413 3 0 26 -13 50
-30 24 -16 50 -30 56 -30 7 0 34 -15 60 -34 42 -29 311 -194 491 -301 51 -30
101 -60 132 -80 109 -69 278 -165 291 -165 23 0 49 33 49 62 0 18 -11 32 -37
51 -33 21 -248 153 -368 224 -22 13 -47 28 -55 33 -50 33 -394 238 -440 262
-30 17 -71 43 -91 59 -20 16 -41 29 -47 29 -5 0 -15 6 -21 13 -8 11 3 35 52
108 69 103 187 258 211 279 9 7 16 16 16 21 0 19 -28 5 -95 -47z"/>
<path d="M859 1189 c-63 -82 -123 -163 -134 -179 -11 -16 -67 -90 -125 -165
-58 -75 -114 -149 -125 -165 -11 -15 -67 -90 -125 -165 -58 -76 -121 -159
-141 -186 -20 -27 -39 -47 -42 -44 -4 3 -5 2 -3 -1 5 -6 -17 -38 -107 -158
-39 -51 -57 -84 -55 -99 l3 -22 327 -2 c180 -1 327 1 326 5 -3 11 21 113 41
172 10 30 31 98 46 150 35 119 68 230 101 340 59 193 73 239 99 330 15 52 37
125 49 163 l21 67 65 -86 c36 -47 75 -100 87 -118 12 -17 58 -78 102 -135 44
-58 77 -109 74 -114 -3 -6 -2 -8 3 -5 5 4 45 -42 89 -100 43 -59 91 -121 105
-139 14 -17 45 -59 70 -93 25 -33 65 -86 90 -118 25 -31 52 -67 60 -79 8 -12
53 -71 99 -132 l84 -111 271 2 271 3 3 27 c2 20 -17 53 -88 145 -125 162 -143
186 -212 278 -33 44 -105 140 -161 214 -56 73 -111 146 -122 161 -54 75 -197
260 -206 266 -12 7 -62 13 -55 7 3 -3 -21 -40 -53 -82 -31 -42 -81 -108 -110
-148 l-53 -72 -121 161 c-160 211 -177 235 -169 244 4 4 3 5 -3 2 -5 -4 -21
10 -35 29 -53 74 -83 103 -104 103 -17 0 -50 -36 -137 -151z m30 -121 c-10
-35 -31 -101 -45 -148 -13 -47 -36 -123 -50 -170 -34 -112 -56 -185 -89 -300
-15 -52 -38 -129 -51 -170 -13 -41 -24 -81 -24 -87 0 -7 -9 -37 -21 -68 l-20
-55 -240 0 -239 0 17 27 c10 15 42 59 71 98 29 38 133 175 230 304 97 129 230
305 295 390 66 86 133 175 150 199 17 23 32 42 33 42 2 0 -6 -28 -17 -62z
m862 -152 c24 -32 51 -68 59 -80 16 -22 62 -83 223 -295 56 -73 111 -146 122
-161 11 -16 68 -92 127 -169 l107 -141 -207 2 c-165 2 -206 6 -204 16 1 8 -1
11 -6 8 -5 -3 -30 23 -55 57 -41 56 -68 92 -209 280 -24 31 -64 83 -90 116
l-47 58 21 69 c11 38 31 101 44 141 13 39 24 78 24 87 0 28 30 90 39 80 4 -5
28 -35 52 -68z"/>
</g>
</svg>
