<?xml version="1.0" standalone="no"?>
<!DOCTYPE svg PUBLIC "-//W3C//DTD SVG 20010904//EN"
 "http://www.w3.org/TR/2001/REC-SVG-20010904/DTD/svg10.dtd">
<svg version="1.0" xmlns="http://www.w3.org/2000/svg"
 width="199.000000pt" height="355.000000pt" viewBox="0 0 199.000000 355.000000"
 preserveAspectRatio="xMidYMid meet">
<metadata>
Created by potrace 1.15, written by Peter Selinger 2001-2017
</metadata>
<g transform="translate(0.000000,355.000000) scale(0.100000,-0.100000)"
fill="#000000" stroke="none">
<path d="M530 3245 l-525 -303 0 -527 0 -527 535 -308 c564 -325 611 -357 652
-447 22 -47 23 -56 28 -592 l5 -545 97 97 c340 340 555 756 643 1247 23 126
32 481 15 621 -22 193 -102 510 -152 602 l-13 24 -370 -213 c-203 -118 -372
-214 -375 -214 -5 0 -290 487 -298 509 -1 4 164 104 368 221 203 117 370 217
370 221 0 14 -119 149 -205 233 -76 74 -233 207 -245 206 -3 -1 -241 -138
-530 -305z"/>
</g>
</svg>
